<?xml version="1.0" encoding="utf-8"?>
<!-- Designed by Vexels.com - 2020 All Rights Reserved - https://vexels.com/terms-and-conditions/  -->
<svg version="1.1" id="Capa_1" xmlns="http://www.w3.org/2000/svg" xmlns:xlink="http://www.w3.org/1999/xlink" x="0px" y="0px"
	 viewBox="0 0 1200 1200" enable-background="new 0 0 1200 1200" xml:space="preserve">
<g>
	<path fill="#06AA51" d="M128.726,402.017c68.065-35.857,148.818-54.04,240.015-54.04c19.011,0,37.253,0.808,54.48,2.129
		c45.523-28.716,99.387-45.36,157.074-45.36c77.613,0,148.313,30.117,201.068,79.258c33.733-11.397,69.924-17.167,107.93-17.169
		c0.006,0,0,0,0.003,0c9.53,0,18.798,0.379,27.784,1.026c-73.793-106.854-197.1-176.89-336.785-176.89
		c-127.946,0-242.156,58.76-317.159,150.751c0-0.008-0.001-0.017-0.001-0.025c0,0-91.87-17.132-195.151,42.97l31.592,81.209
		L50,559.722l63.538-10.107V410.016L128.726,402.017z"/>
	<path fill="#06AA51" d="M1058.81,404.222l2.6,14.722c3.072,17.375,2.542,31.26,1.98,45.963c-0.322,8.43-0.644,17.058-0.324,27.206
		c48.77-12.935,86.934-21.455,86.934-21.455s-56.52-56.272-55.419-59.576c1.101-3.303,44.289-81.817,44.289-81.817
		c-60.386-17.876-163.722,19.607-211.583,39.451c67.362,6.571,115.557,28.223,117.921,29.302L1058.81,404.222z"/>
	<path fill="#06AA51" d="M989.197,608.164c-2.773-1.592-29.878-9.209-29.878-9.209c-28.399-6.942-56.559-11.07-84.088-12.426
		c0.201,4.467,0.32,8.955,0.32,13.47c0,55.925-15.63,108.269-42.751,152.892c16.846,43.497,21.214,81.186,21.421,83.046l0.7,6.274
		c1.18,10.584-5.662,20.406-15.999,22.968l-6.128,1.518c-36.163,8.964-69.504,13.508-99.092,13.508
		c-17.057,0-33.001-1.526-47.878-4.463c-32.788,12.591-68.363,19.512-105.529,19.512c-37.167,0-72.743-6.922-105.532-19.514
		c-14.876,2.938-30.817,4.464-47.872,4.465c-29.582,0.003-62.923-4.544-99.092-13.508l-10.594-2.626
		c-7.782-1.929-12.932-9.324-12.043-17.292l1.21-10.847c0.209-1.858,4.58-39.539,21.423-83.031
		C300.672,708.276,285.04,655.93,285.04,600c0-7.799,0.31-15.527,0.906-23.176c-31.979,7.1-60.587,15.523-82.791,22.82
		c0,0-25.243,6.515-30.251,8.743c0,0-0.452,21.998,0.525,33.531c0.53,5.163,1.139,10.304,1.856,15.41
		c27.881,198.755,198.571,351.701,405.011,351.701c206.566,0,377.338-153.132,405.062-352.063c0.714-5.124,1.327-10.28,1.85-15.462
		c0.83-8.663,1.585-22.573,1.926-29.333C989.174,610.841,989.168,609.499,989.197,608.164z"/>
	<path fill="#06AA51" d="M597.912,509.059c3.992,0.445,7.563-0.744,10.744-3.509c3.182-2.767,5.03-6.299,5.581-10.539
		s-0.356-7.933-2.754-11.13c-2.397-3.2-5.565-4.996-9.544-5.454c-5.572-0.643-8.386-1.031-14.076-1.963
		c-1.715,12.249-2.486,18.46-4.1,30.701C589.495,508.06,592.323,508.435,597.912,509.059z"/>
	<path fill="#06AA51" d="M646.157,542.19c3.649-0.142,6.971-1.757,9.993-4.847c3.021-3.088,4.837-6.732,5.451-10.895
		c1.934-13.137,2.829-19.848,4.721-33.196c0.599-4.23-0.181-7.733-2.373-10.54c-2.192-2.806-5.144-4.082-8.869-3.891
		c-3.757,0.193-7.202,1.795-10.294,4.853c-3.096,3.058-4.929,6.665-5.492,10.874c-1.774,13.282-2.605,19.964-4.425,33.017
		c-0.577,4.137,0.251,7.652,2.46,10.522C639.534,540.96,642.478,542.332,646.157,542.19z"/>
	<path fill="#06AA51" d="M847.295,477.898c3.377-3.313,5.487-7.169,6.323-11.614c0.829-4.408,0.146-8.122-2.015-11.1
		c-2.162-2.975-5.167-4.325-9.019-4.006c-5.348,0.443-7.999,0.707-13.264,1.3c-2.533,12.856-3.767,19.317-6.261,32.17
		c5.281-0.589,7.945-0.854,13.333-1.307C840.272,483.013,843.919,481.208,847.295,477.898z"/>
	<path fill="#06AA51" d="M970.684,524.409c5.262,1.108,9.934,0.693,13.853-1.276c3.923-1.968,5.936-4.901,6.069-8.931
		c0.389-11.766,0.582-17.654,0.97-29.427c0.133-4.031-1.528-8.071-4.845-12.078c-3.315-4.004-7.315-6.778-12.044-8.18
		c-6.286-1.863-9.385-2.708-15.507-4.242c-2.274,24.336-3.37,36.55-5.661,60.803C960.26,522.274,963.691,522.937,970.684,524.409z"
		/>
	<path fill="#06AA51" d="M595.47,653.964c0,0,25.917,71.273,131.439,139.769c0,0-108.274-34.248-146.612-133.898
		c-38.337,99.65-146.611,133.898-146.611,133.898c105.521-68.496,131.439-139.769,131.439-139.769
		c-202.712-63.868-230.48,185.125-230.48,185.125c191.351,47.429,236.65-48.61,245.653-117.531
		c9.003,68.921,54.302,164.96,245.653,117.531C825.95,839.089,798.182,590.096,595.47,653.964z"/>
	<path fill="#06AA51" d="M568.287,569.42c0,0-72.295-2.419-81.247,2.794c0,0,89.279,63.748,243.719,6.703
		c93.182-34.418,187.563-20.688,247.789-4.382c3.853,1.043,6.966,1.933,10.53,2.985l0.556,0.164
		c33.06,9.762,53.296,18.631,53.296,18.631s-2.435-39.211-6.863-82.151c-4.429-42.941,2.396-61.623-2.667-90.268
		c0,0-133.982-61.128-264.408-4.698c-109.936,47.565-187.055,30.309-208.574,23.713l-2.51-40.345c0,0-230.959-72.826-415.924,24.616
		v164.609c0,0,23.652-9.287,30.919-11.848c1.579-0.564,3.194-1.137,4.876-1.727c57.101-20.009,173.146-53.971,278.504-43.458
		c5.671,0.566,11.311,1.256,16.908,2.089C507.253,541.915,539.769,552.081,568.287,569.42z M930.899,520.755
		c0.106-0.845,0.538-1.531,1.296-2.056c0.756-0.526,1.618-0.722,2.585-0.587c1.49,0.208,2.745-0.128,3.753-1.013
		c2.547-22.087,3.771-33.22,6.295-55.404c0.124-1.775-0.374-3.382-1.476-4.815c-1.105-1.435-2.534-2.328-4.297-2.665
		c0.112-0.912,0.169-1.368,0.281-2.28c0.078-0.638,0.383-1.14,0.917-1.505c0.53-0.365,1.125-0.481,1.782-0.348
		c12.872,2.617,19.465,4.266,33.053,8.427c8.58,2.627,15.924,7.953,22.236,15.51c6.312,7.56,9.723,15.062,9.723,22.378
		c0,6.449,0,9.673,0,16.122c0,7.316-3.6,12.436-10.905,15.818c-7.305,3.381-16.112,4.053-25.866,2.07
		c-16.607-3.376-24.528-4.657-39.761-6.593C930.67,522.591,930.746,521.979,930.899,520.755z M866.307,513.6
		c1.285-0.011,2.41-0.539,3.369-1.589c4.142-22.793,6.106-34.381,10.196-57.384c0.256-1.826-0.07-3.359-0.969-4.596
		c-0.902-1.238-2.147-1.862-3.742-1.864c0.172-0.942,0.258-1.413,0.43-2.355c0.12-0.659,0.439-1.225,0.959-1.697
		c0.517-0.472,1.074-0.706,1.67-0.701c20.048,0.169,30.383,0.885,52.067,4.495c-0.674,4.976-1.009,7.466-1.678,12.448
		c-1.27-0.198-1.905-0.293-3.169-0.478c-0.869-0.127-1.581-0.535-2.126-1.232c-0.548-0.698-0.759-1.474-0.637-2.333
		c0.188-1.324-0.187-2.435-1.115-3.331c-11.626-1.594-17.294-2.104-28.406-2.689c-1.783,10.486-2.661,15.741-4.424,26.232
		c9.758,0.4,14.739,0.751,24.957,1.838c-0.691,4.719-1.037,7.078-1.729,11.791c-0.095,0.644-0.406,1.168-0.938,1.574
		c-0.528,0.403-1.126,0.574-1.792,0.513c-0.974-0.089-1.461-0.132-2.43-0.214c0.262-1.726-0.133-3.247-1.167-4.553
		c-1.035-1.306-2.436-2.05-4.199-2.216c-5.693-0.416-8.498-0.568-14.04-0.776c-1.87,11.112-2.804,16.662-4.71,27.694
		c10.425,0.282,15.776,0.568,26.822,1.519c1.909,0.128,3.598-0.335,5.056-1.403c1.454-1.068,2.306-2.466,2.552-4.211
		c0.99,0.103,1.485,0.157,2.48,0.267c0.691,0.076,1.258,0.378,1.697,0.895c0.44,0.518,0.62,1.098,0.534,1.734
		c-0.633,4.662-0.951,6.99-1.591,11.637c-24.818-2.636-36.299-2.988-58.129-2.633c0.236-1.255,0.354-1.884,0.589-3.141
		c0.162-0.868,0.596-1.623,1.302-2.265C864.703,513.933,865.473,513.608,866.307,513.6z M843.845,444.737
		c5.369-0.444,9.571,1.468,12.609,5.663c3.036,4.196,4.017,9.434,2.863,15.638c-1.099,5.91-3.808,11.026-8.113,15.426
		c-4.305,4.4-9.159,7.071-14.488,8.081c5.404,9.073,8.166,13.658,13.908,22.893c0.426,0.558,0.819,0.945,1.177,1.165
		c0.36,0.222,0.861,0.318,1.502,0.294c0.812-0.03,1.446,0.265,1.903,0.881c0.457,0.616,0.605,1.358,0.439,2.227
		c-0.24,1.259-0.36,1.888-0.601,3.144c-7.291,0.227-10.865,0.411-17.891,0.885c0.256-1.279,0.383-1.92,0.638-3.202
		c0.721-0.193,1.359-0.591,1.918-1.199c0.561-0.609,0.92-1.314,1.077-2.112c-5.922-9.649-8.776-14.441-14.385-23.92
		c-1.844,0.189-2.761,0.286-4.592,0.49c-1.625,8.34-2.439,12.502-4.096,20.768c-0.333,1.816-0.094,3.27,0.72,4.374
		c0.812,1.104,1.982,1.574,3.509,1.423c-0.189,0.936-0.284,1.403-0.474,2.337c-0.132,0.649-0.445,1.229-0.939,1.741
		c-0.495,0.509-1.026,0.791-1.599,0.85c-8.289,0.845-12.35,1.343-20.354,2.426c0.259-1.251,0.389-1.878,0.646-3.133
		c0.178-0.866,0.592-1.65,1.244-2.354c0.649-0.703,1.346-1.106,2.085-1.204c1.139-0.151,2.157-0.793,3.051-1.931
		c4.63-22.825,6.778-34.539,11.328-57.693c0.298-1.828,0.05-3.287-0.741-4.375c-0.793-1.088-1.927-1.526-3.407-1.311
		c0.188-0.946,0.282-1.419,0.47-2.364c0.132-0.661,0.445-1.259,0.942-1.793c0.495-0.533,1.02-0.84,1.574-0.919
		C826.844,446.357,832.442,445.68,843.845,444.737z M757.879,460.632c0.122-0.652,0.421-1.251,0.899-1.798
		c0.475-0.547,0.983-0.874,1.518-0.982c18.02-3.612,27.045-5.479,45.516-8.417c-1.021,5.115-1.525,7.679-2.527,12.808
		c-1.063,0.167-1.595,0.252-2.656,0.423c-0.729,0.118-1.303-0.088-1.712-0.625c-0.412-0.536-0.532-1.243-0.359-2.123
		c0.265-1.355,0.032-2.345-0.698-2.968c-9.89,1.66-14.781,2.579-24.517,4.456c-2.007,10.504-2.98,15.785-4.941,26.3
		c8.291-1.552,12.459-2.315,20.891-3.732c-0.924,4.813-1.385,7.217-2.311,12.015c-0.126,0.655-0.422,1.243-0.888,1.763
		c-0.462,0.517-0.965,0.821-1.505,0.911c-0.791,0.133-1.188,0.2-1.977,0.334c0.338-1.75,0.121-3.153-0.646-4.201
		c-0.766-1.047-1.882-1.464-3.338-1.242c-4.709,0.83-7.049,1.258-11.715,2.123c-2.083,11.125-3.122,16.674-5.284,27.62
		c8.499-1.511,12.781-2.258,21.478-3.647c1.507-0.276,2.885-1.091,4.138-2.46c1.251-1.368,2.057-2.937,2.411-4.714
		c0.779-0.121,1.169-0.181,1.951-0.3c0.543-0.083,0.966,0.085,1.265,0.496c0.299,0.411,0.386,0.944,0.256,1.594
		c-0.956,4.761-1.438,7.132-2.416,11.851c-19.087,2.792-28.221,4.524-46.391,7.789c0.243-1.226,0.364-1.841,0.605-3.071
		c0.166-0.85,0.555-1.628,1.168-2.339c0.611-0.71,1.266-1.13,1.961-1.257c1.072-0.195,2.027-0.865,2.866-2.013
		c4.357-22.436,6.312-34.057,10.562-56.935c0.277-1.803,0.031-3.212-0.739-4.23c-0.771-1.018-1.871-1.383-3.301-1.097
		C757.617,462.03,757.705,461.564,757.879,460.632z M684.45,471.276c6.539-0.807,9.788-1.27,16.264-2.273
		c0.722-0.112,1.291,0.093,1.7,0.612c0.409,0.519,0.545,1.207,0.406,2.059c-0.205,1.255-0.307,1.883-0.51,3.139
		c-1.022,0.196-1.873,0.846-2.545,1.956c-0.229,21.29-0.174,32.187-0.652,53.15c3.127-6.972,6.259-14.063,9.408-21.225
		c3.164-7.198,6.346-14.467,9.583-21.758c0.37,2.786,0.752,5.573,1.146,8.354c1.444,10.382,2.843,20.75,4.12,30.981
		c7.282-23.022,10.736-35.014,18.174-58.576c0.141-0.789,0.065-1.435-0.232-1.932c-0.297-0.497-0.761-0.75-1.388-0.767
		c0.229-1.272,0.344-1.908,0.574-3.178c4.036-0.799,6.056-1.205,10.095-2.016c0.537-0.108,0.956,0.033,1.255,0.423
		c0.3,0.39,0.389,0.911,0.269,1.561c-0.177,0.953-0.265,1.429-0.44,2.382c-1.19,0.238-2.316,0.873-3.377,1.902
		c-1.061,1.029-1.874,2.243-2.44,3.643c-6.23,19.652-12.313,39.885-18.723,59.934c0.184,0.513,0.468,0.825,0.848,0.945
		c0.376,0.118,0.827,0.134,1.345,0.041c0.69-0.123,1.221,0.08,1.594,0.609c0.373,0.53,0.479,1.216,0.318,2.059
		c-0.233,1.222-0.35,1.833-0.586,3.05c-5.918,1.049-8.869,1.567-14.777,2.559c-0.429,0.072-0.713-0.048-0.848-0.363
		c-0.135-0.315-0.157-0.715-0.067-1.201c0.07-0.376,0.105-0.565,0.174-0.942c0.191-0.131,0.367-0.264,0.529-0.39
		c1.153-0.971,2.146-2.141,2.979-3.505c-1.298-10.791-2.031-16.277-3.553-27.267c-6.531,14.819-9.743,22.176-16.333,36.385
		c-5.297,0.784-7.952,1.155-13.293,1.832c-0.493,0.063-0.804-0.073-0.93-0.41c-0.126-0.337-0.146-0.744-0.064-1.223
		c0.06-0.35,0.09-0.525,0.15-0.876c1.384-0.946,2.561-2.19,3.534-3.737c0.495-23.153,0.311-35.345,0.424-59.052
		c-0.209-0.559-0.528-0.889-0.954-0.989c-0.426-0.1-0.93-0.116-1.502-0.042c-0.726,0.092-1.3-0.136-1.717-0.691
		c-0.42-0.555-0.565-1.254-0.434-2.1C684.162,473.112,684.257,472.499,684.45,471.276z M624.219,520.758
		c1.037-7.756,1.538-11.675,2.559-19.514c0.675-5.185,2.454-9.884,5.335-14.124c2.878-4.24,6.435-7.619,10.638-10.206
		c4.203-2.59,8.621-3.986,13.227-4.228c4.571-0.241,8.535,0.718,11.901,2.943c3.367,2.223,5.82,5.344,7.388,9.421
		c1.565,4.076,1.957,8.73,1.198,13.961c-1.148,7.908-1.713,11.863-2.875,19.701c-0.768,5.181-2.558,9.993-5.363,14.402
		c-2.808,4.409-6.224,7.975-10.267,10.683c-4.043,2.711-8.28,4.148-12.74,4.313c-4.494,0.166-8.438-0.97-11.84-3.393
		c-3.402-2.42-5.956-5.742-7.642-9.948C624.046,530.564,623.532,525.886,624.219,520.758z M569.778,468.958
		c0.094-0.633,0.402-1.124,0.924-1.475c0.519-0.352,1.091-0.457,1.713-0.318c12.431,2.774,18.49,3.764,30.382,5.144
		c3.711,0.431,6.942,1.706,9.715,3.87c2.774,2.165,4.822,4.898,6.163,8.249c1.342,3.353,1.753,6.988,1.242,10.911
		c-0.516,3.959-1.866,7.517-4.059,10.65c-2.196,3.133-4.928,5.563-8.222,7.254c-3.294,1.689-6.795,2.344-10.523,1.931
		c-5.593-0.62-8.423-0.992-14.162-1.881c-1.059,7.921-1.592,11.86-2.734,19.592c-0.217,1.708,0.166,3.201,1.144,4.482
		c0.976,1.281,2.283,2.029,3.911,2.245c-0.136,0.888-0.205,1.332-0.343,2.217c-0.094,0.601-0.387,1.094-0.881,1.47
		c-0.493,0.376-1.047,0.522-1.663,0.436c-8.913-1.236-13.47-2.003-22.833-3.897c0.195-1.163,0.292-1.747,0.483-2.918
		c0.132-0.809,0.55-1.446,1.253-1.916c0.7-0.47,1.479-0.621,2.333-0.454c0.674,0.132,1.284,0.146,1.829,0.039
		c0.545-0.105,1.055-0.408,1.534-0.912c3.31-21.363,4.552-32.783,7.664-54.957c0.177-1.773-0.229-3.358-1.221-4.764
		c-0.994-1.409-2.32-2.299-3.993-2.683C569.572,470.348,569.64,469.884,569.778,468.958z M459.723,431.831
		c0.425-0.374,0.935-0.527,1.526-0.454c19.904,2.469,29.952,4.175,50.337,8.75c0,4.508,0,6.77,0,11.304
		c-1.171-0.256-1.757-0.382-2.927-0.63c-0.806-0.171-1.504-0.592-2.093-1.27c-0.589-0.675-0.885-1.403-0.886-2.183
		c-0.002-1.202-0.49-2.248-1.465-3.129c-10.927-2.257-16.352-3.226-27.143-4.879c0.066,9.488,0.099,14.265,0.164,23.814
		c9.248,1.353,13.891,2.126,23.219,3.879c0.012,4.307,0.018,6.462,0.03,10.769c0.001,0.591-0.207,1.052-0.621,1.387
		c-0.415,0.334-0.921,0.447-1.52,0.34c-0.877-0.157-1.315-0.234-2.191-0.387c-0.006-1.574-0.569-3.016-1.685-4.308
		s-2.49-2.096-4.118-2.402c-5.237-0.874-7.849-1.28-13.063-2.032c0.07,10.127,0.105,15.196,0.174,25.264
		c9.564,1.309,14.357,2.053,23.977,3.73c1.656,0.255,3.038-0.058,4.149-0.947c1.108-0.886,1.662-2.124,1.66-3.717
		c0.858,0.16,1.287,0.241,2.146,0.404c0.596,0.113,1.112,0.425,1.545,0.928c0.433,0.506,0.648,1.051,0.648,1.635
		c0,4.26,0,6.386,0,10.623c-20.881-3.888-31.256-5.398-51.902-7.626c-0.01-1.146-0.015-1.719-0.025-2.867
		c-0.007-0.793,0.264-1.446,0.819-1.963c0.552-0.516,1.222-0.732,2.009-0.643c1.213,0.137,2.177-0.227,2.894-1.098
		c-0.173-20.797-0.259-31.377-0.431-52.196c-0.082-1.658-0.68-3.115-1.792-4.359c-1.116-1.246-2.462-1.965-4.044-2.153
		c-0.007-0.852-0.011-1.277-0.018-2.128C459.089,432.694,459.298,432.208,459.723,431.831z M243.895,507.777
		c0.005-0.768,0.277-1.48,0.823-2.142c0.543-0.661,1.197-1.065,1.958-1.207c1.175-0.22,2.116-0.855,2.822-1.91
		c0.122-20.137,0.183-30.248,0.306-50.391c-0.056-1.583-0.612-2.813-1.668-3.679c-1.059-0.868-2.348-1.154-3.874-0.857
		c0.005-0.824,0.008-1.236,0.013-2.059c0.003-0.575,0.212-1.111,0.628-1.607c0.416-0.493,0.91-0.798,1.48-0.908
		c19.173-3.698,28.727-5.368,47.864-8.132c-0.014,4.498-0.022,6.75-0.036,11.257c-1.104,0.156-1.657,0.235-2.761,0.395
		c-0.76,0.11-1.419-0.066-1.972-0.534c-0.553-0.465-0.83-1.084-0.827-1.855c0.004-1.19-0.452-2.057-1.368-2.592
		c-10.315,1.558-15.47,2.416-25.791,4.256c-0.052,9.235-0.079,13.861-0.131,23.113c8.882-1.551,13.324-2.274,22.21-3.602
		c-0.018,4.231-0.026,6.347-0.044,10.578c-0.002,0.58-0.205,1.101-0.604,1.562c-0.399,0.461-0.885,0.732-1.459,0.817
		c-0.839,0.125-1.259,0.188-2.098,0.315c0.007-1.542-0.522-2.776-1.581-3.688c-1.058-0.912-2.369-1.261-3.928-1.047
		c-5.016,0.798-7.523,1.215-12.537,2.084c-0.056,9.81-0.084,14.717-0.139,24.511c9.239-1.564,13.861-2.282,23.117-3.582
		c1.594-0.257,2.926-0.993,3.999-2.218c1.07-1.221,1.608-2.622,1.614-4.2c0.823-0.111,1.235-0.166,2.058-0.274
		c0.572-0.075,1.066,0.071,1.479,0.434c0.414,0.366,0.618,0.84,0.616,1.42c-0.013,4.235-0.02,6.352-0.033,10.579
		c-20.111,2.535-30.137,4.138-50.155,7.937C243.885,509.443,243.888,508.888,243.895,507.777z M182.604,456.76
		c6.903-1.611,10.347-2.404,17.221-3.952c0.767-0.173,1.431-0.049,1.989,0.37s0.834,1.013,0.831,1.781
		c-0.004,1.134-0.006,1.702-0.01,2.836c-1.053,0.237-1.87,0.885-2.449,1.944c5.518,18.715,8.25,28.061,13.696,46.753
		c6.117-21.841,9.195-32.739,15.347-54.449c0.004-0.702-0.157-1.213-0.49-1.526c-0.333-0.313-0.674-0.52-1.021-0.624
		c-0.35-0.103-0.605-0.155-0.764-0.152c-0.019-0.016-0.027-0.024-0.047-0.04c0.007-1.111,0.01-1.666,0.016-2.777
		c4.051-0.843,6.075-1.258,10.12-2.069c0.381-0.076,0.707-0.007,0.974,0.212c0.269,0.218,0.402,0.516,0.4,0.901
		c-0.003,0.555-0.005,0.832-0.009,1.387c-0.603,0.12-1.143,0.308-1.621,0.564c-0.478,0.256-0.911,0.694-1.295,1.314
		c-2.532,8.93-3.797,13.403-6.327,22.356c-3.601,12.813-7.212,25.652-10.829,38.511c0.347-0.01,0.714-0.06,1.094-0.144
		c0.761-0.166,1.41-0.027,1.946,0.416c0.536,0.442,0.803,1.045,0.799,1.813c-0.006,1.111-0.009,1.667-0.015,2.778
		c-8.262,1.785-12.39,2.728-20.643,4.711c-0.508,0.122-0.863,0.04-1.069-0.248c-0.204-0.285-0.306-0.652-0.305-1.102
		c0.001-0.327,0.001-0.491,0.002-0.818c1.334-1.056,2.401-2.353,3.199-3.886c-6.01-20.445-9.033-30.674-15.161-51.214
		c-0.32-0.471-0.712-0.732-1.176-0.784c-0.464-0.052-1.003-0.007-1.612,0.136c-0.769,0.181-1.427,0.052-1.972-0.383
		c-0.548-0.435-0.819-1.038-0.819-1.813C182.604,458.442,182.604,457.881,182.604,456.76z M350.085,485.776
		c-2.313,4.123-5.427,7.475-9.336,10.086c-3.91,2.611-8.227,4.091-12.939,4.471c-4.742,0.382-9.066-0.4-12.967-2.357
		c-3.903-1.959-7.005-4.763-9.312-8.447c-2.307-3.681-3.45-7.903-3.439-12.69c0.017-7.241,0.025-10.865,0.042-18.106
		c0.011-4.789,1.173-9.305,3.483-13.543c2.311-4.238,5.402-7.772,9.28-10.577c3.875-2.804,8.161-4.464,12.861-4.944
		c5.845-0.597,11.066,0.775,15.663,4.101c4.6,3.328,7.682,7.965,9.24,13.844c-4.391,0.267-6.586,0.418-10.969,0.755
		c-1.566,0.089-2.882-0.369-3.953-1.376c-1.072-1.007-1.607-2.289-1.61-3.856c1.76-0.152,2.639-0.225,4.4-0.366
		c-1.155-2.488-2.863-4.421-5.127-5.784c-2.264-1.363-4.807-1.903-7.639-1.618c-3.846,0.386-7.127,2.134-9.846,5.214
		c-2.716,3.076-4.079,6.568-4.083,10.462c-0.012,12.284-0.018,18.444-0.03,30.728c-0.004,3.894,1.358,7.081,4.088,9.587
		c2.73,2.507,6.04,3.593,9.914,3.274c3.844-0.316,7.138-1.947,9.874-4.926c2.736-2.981,4.098-6.427,4.088-10.353
		c-0.01-4.004-0.015-6.007-0.025-10.015c-1.691,0.119-2.535,0.181-4.225,0.309c-1.566,0.15-2.885,0.82-3.952,2.002
		c-1.07,1.182-1.603,2.555-1.601,4.122c-0.844,0.069-1.265,0.105-2.109,0.176c-0.576,0.049-1.064-0.111-1.464-0.487
		c-0.4-0.37-0.601-0.85-0.602-1.437c-0.003-4.284-0.005-6.428-0.008-10.713c10.262-0.943,15.399-1.327,25.699-1.9
		c0.017,4.358,0.025,6.538,0.043,10.894C353.542,477.167,352.398,481.656,350.085,485.776z M412.769,485.25
		c-2.316,3.96-5.443,7.07-9.376,9.363c-3.934,2.294-8.284,3.411-13.039,3.38c-4.786-0.031-9.158-1.206-13.11-3.537
		c-3.955-2.334-7.108-5.457-9.465-9.407c-2.356-3.947-3.542-8.346-3.567-13.22c-0.038-7.373-0.057-11.065-0.095-18.438
		c-0.025-4.877,1.112-9.373,3.412-13.48c2.3-4.107,5.395-7.423,9.293-9.915c3.895-2.492,8.218-3.771,12.975-3.803
		c5.916-0.039,11.221,1.876,15.907,5.71c4.688,3.837,7.845,8.845,9.458,14.953c-4.455-0.173-6.679-0.238-11.12-0.327
		c-1.586-0.064-2.922-0.656-4.014-1.783c-1.092-1.126-1.643-2.48-1.657-4.07c1.782,0.018,2.672,0.03,4.456,0.061
		c-1.187-2.637-2.931-4.767-5.235-6.372c-2.304-1.605-4.885-2.402-7.75-2.386c-3.891,0.022-7.197,1.487-9.924,4.365
		c-2.724,2.875-4.074,6.304-4.048,10.266c0.081,12.499,0.121,18.775,0.201,31.275c0.026,3.962,1.425,7.322,4.201,10.115
		c2.779,2.79,6.126,4.186,10.037,4.208c3.881,0.022,7.196-1.338,9.942-4.111c2.745-2.776,4.101-6.143,4.066-10.126
		c-0.035-4.062-0.053-6.095-0.089-10.161c-1.711-0.04-2.564-0.056-4.273-0.084c-1.583,0.006-2.913,0.562-3.985,1.663
		c-1.075,1.102-1.604,2.448-1.591,4.04c-0.852-0.007-1.278-0.01-2.13-0.015c-0.582-0.003-1.076-0.211-1.483-0.629
		c-0.407-0.413-0.614-0.919-0.618-1.516c-0.034-4.355-0.051-6.535-0.084-10.892c10.372-0.003,15.571,0.098,26.008,0.529
		c0.041,4.414,0.062,6.622,0.103,11.033C416.219,476.86,415.085,481.293,412.769,485.25z M450.248,499.101
		c-0.422,0.39-0.927,0.556-1.514,0.502c-8.534-0.782-12.793-1.103-21.292-1.615c-0.011-1.15-0.017-1.725-0.028-2.876
		c-0.008-0.796,0.261-1.464,0.811-2.01c0.548-0.545,1.213-0.795,1.994-0.745c0.618,0.04,1.173-0.024,1.66-0.188
		c0.487-0.167,0.891-0.519,1.211-1.06c-0.203-20.88-0.305-31.48-0.507-52.379c-0.084-1.66-0.676-3.078-1.777-4.244
		c-1.103-1.163-2.434-1.795-3.996-1.887c-0.009-0.873-0.013-1.31-0.021-2.182c-0.006-0.596,0.2-1.097,0.619-1.502
		c0.42-0.402,0.923-0.587,1.506-0.551c8.498,0.534,12.763,0.883,21.33,1.764c0.011,1.148,0.016,1.722,0.027,2.871
		c0.008,0.795-0.266,1.45-0.818,1.972c-0.552,0.523-1.222,0.747-2.008,0.671c-0.621-0.06-1.171-0.012-1.644,0.14
		c-0.473,0.155-0.887,0.496-1.243,1.026c0.199,20.864,0.298,31.465,0.497,52.352c0.083,1.664,0.674,3.087,1.781,4.278
		c1.107,1.188,2.443,1.857,4.014,2.007c0.008,0.872,0.012,1.308,0.02,2.179C450.876,498.219,450.67,498.711,450.248,499.101z"/>
</g>
</svg>
